<svg xmlns="http://www.w3.org/2000/svg" width="17.9" height="17.4" viewBox="0 0 17.9 17.4"><style>.st0{fill:#1a1a1a}</style><path class="st0" d="M.1 15.3c-.2-.2-.2-.6 0-.8l4.7-4.3c.2-.2.6-.2.8 0l1.7 1.9c.2.2.2.6 0 .8l-4.7 4.3c-.2.2-.6.2-.8 0L.1 15.3zM11.7 0c.7 0 1.4.1 2 .3 3.2 1.1 4.9 4.6 3.8 7.9-.9 2.6-3.3 4.2-5.8 4.2-.7 0-1.4-.1-2-.3C6.5 11 4.8 7.5 5.9 4.2 6.7 1.6 9.1 0 11.7 0m0 1.7c-1.9 0-3.6 1.2-4.3 3-.3 1.1-.3 2.4.2 3.5s1.4 1.9 2.6 2.3c.5.2 1 .2 1.5.2 1.9 0 3.6-1.2 4.3-3 .4-1.1.3-2.4-.2-3.4-.5-1.1-1.4-1.9-2.6-2.3-.5-.2-1-.3-1.5-.3z"/></svg>